<svg xmlns="http://www.w3.org/2000/svg" xmlns:xlink="http://www.w3.org/1999/xlink" contentStyleType="text/css" data-diagram-type="DESCRIPTION" height="640px" preserveAspectRatio="none" style="width:671px;height:640px;background:#FFFFFF;" version="1.1" viewBox="0 0 671 640" width="671px" zoomAndPan="magnify"><defs/><g><!--cluster Victor's Home\nRaspberry Pi--><g class="cluster" data-entity="Victor.s Home.nRaspberry Pi" data-source-line="5" data-uid="ent0002" id="cluster_Victor.s Home.nRaspberry Pi"><polygon fill="none" points="282.69,358.98,292.69,348.98,472.69,348.98,472.69,613.17,462.69,623.17,282.69,623.17,282.69,358.98" style="stroke:#181818;stroke-width:1;"/><line style="stroke:#181818;stroke-width:1;" x1="462.69" x2="472.69" y1="358.98" y2="348.98"/><line style="stroke:#181818;stroke-width:1;" x1="282.69" x2="462.69" y1="358.98" y2="358.98"/><line style="stroke:#181818;stroke-width:1;" x1="462.69" x2="462.69" y1="358.98" y2="623.17"/><text fill="#000000" font-family="sans-serif" font-size="14" font-weight="bold" lengthAdjust="spacing" textLength="110.0586" x="318.6607" y="374.9751">Victor's Home</text><text fill="#000000" font-family="sans-serif" font-size="14" font-weight="bold" lengthAdjust="spacing" textLength="100.9668" x="323.2066" y="391.272">Raspberry Pi</text></g><!--entity Web--><g class="entity" data-entity="Web" data-source-line="6" data-uid="ent0003" id="entity_Web"><rect fill="#F1F1F1" height="62.5938" rx="2.5" ry="2.5" style="stroke:#181818;stroke-width:0.5;" width="155.0078" x="299.19" y="404.98"/><rect fill="#F1F1F1" height="10" style="stroke:#181818;stroke-width:0.5;" width="15" x="434.1978" y="409.98"/><rect fill="#F1F1F1" height="2" style="stroke:#181818;stroke-width:0.5;" width="4" x="432.1978" y="411.98"/><rect fill="#F1F1F1" height="2" style="stroke:#181818;stroke-width:0.5;" width="4" x="432.1978" y="415.98"/><text fill="#000000" font-family="sans-serif" font-size="14" lengthAdjust="spacing" textLength="115.0078" x="314.19" y="437.9751">PlantUML Online</text><text fill="#000000" font-family="sans-serif" font-size="14" lengthAdjust="spacing" textLength="98.9023" x="322.2427" y="454.272">Web Frontend</text></g><!--entity Engine--><g class="entity" data-entity="Engine" data-source-line="7" data-uid="ent0004" id="entity_Engine"><rect fill="#F1F1F1" height="62.5938" rx="2.5" ry="2.5" style="stroke:#181818;stroke-width:0.5;" width="157.8311" x="298.78" y="544.58"/><rect fill="#F1F1F1" height="10" style="stroke:#181818;stroke-width:0.5;" width="15" x="436.6111" y="549.58"/><rect fill="#F1F1F1" height="2" style="stroke:#181818;stroke-width:0.5;" width="4" x="434.6111" y="551.58"/><rect fill="#F1F1F1" height="2" style="stroke:#181818;stroke-width:0.5;" width="4" x="434.6111" y="555.58"/><text fill="#000000" font-family="sans-serif" font-size="14" lengthAdjust="spacing" textLength="117.8311" x="313.78" y="577.5751">PlantUML Engine</text><text fill="#000000" font-family="sans-serif" font-size="14" lengthAdjust="spacing" textLength="97.1523" x="324.1194" y="593.872">Containerized</text></g><!--entity Victor--><g class="entity" data-entity="Victor" data-source-line="10" data-uid="ent0005" id="entity_Victor"><ellipse cx="305.6938" cy="192.59" fill="#90EE90" rx="16" ry="16" style="stroke:#181818;stroke-width:0.5;"/><path d="M305.6938,212.59 C309.6938,212.59 312.6938,212.59 316.6938,208.59 C324.6938,208.59 332.6938,216.59 332.6938,224.59 L332.6938,228.59 C332.6938,232.59 328.6938,236.59 324.6938,236.59 L286.6938,236.59 C282.6938,236.59 278.6938,232.59 278.6938,228.59 L278.6938,224.59 C278.6938,216.59 286.6938,208.59 294.6938,208.59 C298.6938,212.59 301.6938,212.59 305.6938,212.59" fill="#90EE90" style="stroke:#181818;stroke-width:0.5;"/><text fill="#000000" font-family="sans-serif" font-size="14" lengthAdjust="spacing" textLength="40.9746" x="285.2064" y="250.0851">Victor</text><text fill="#000000" font-family="sans-serif" font-size="14" lengthAdjust="spacing" textLength="97.9043" x="256.7416" y="266.382">(Your Friendly</text><text fill="#000000" font-family="sans-serif" font-size="14" lengthAdjust="spacing" textLength="107.1875" x="252.1" y="282.6789">PlantUML Host)</text></g><!--entity User--><g class="entity" data-entity="User" data-source-line="11" data-uid="ent0006" id="entity_User"><ellipse cx="375.69" cy="22" fill="#FA8072" rx="16" ry="16" style="stroke:#181818;stroke-width:0.5;"/><path d="M375.69,42 C379.69,42 382.69,42 386.69,38 C394.69,38 402.69,46 402.69,54 L402.69,58 C402.69,62 398.69,66 394.69,66 L356.69,66 C352.69,66 348.69,62 348.69,58 L348.69,54 C348.69,46 356.69,38 364.69,38 C368.69,42 371.69,42 375.69,42" fill="#FA8072" style="stroke:#181818;stroke-width:0.5;"/><text fill="#000000" font-family="sans-serif" font-size="14" lengthAdjust="spacing" textLength="31.9102" x="359.7349" y="79.4951">User</text><text fill="#000000" font-family="sans-serif" font-size="14" lengthAdjust="spacing" textLength="42.5264" x="354.4268" y="95.792">(You!)</text></g><g class="entity" data-entity="GMN11" data-source-line="20" data-uid="ent0012" id="entity_GMN11"><path d="M6,195.77 L6,266.3013 A0,0 0 0 0 6,266.3013 L217.3853,266.3013 A0,0 0 0 0 217.3853,266.3013 L217.3853,235.04 L251.78,231.04 L217.3853,227.04 L217.3853,205.77 L207.3853,195.77 L6,195.77 A0,0 0 0 0 6,195.77" fill="#FEFFDD" style="stroke:#181818;stroke-width:0.5;"/><path d="M207.3853,195.77 L207.3853,205.77 L217.3853,205.77 L207.3853,195.77" fill="#FEFFDD" style="stroke:#181818;stroke-width:0.5;"/><text fill="#000000" font-family="sans-serif" font-size="13" lengthAdjust="spacing" textLength="160.4688" x="22.8259" y="212.8369">I'm a solutions architect.</text><text fill="#000000" font-family="sans-serif" font-size="13" lengthAdjust="spacing" textLength="182.1206" x="12" y="227.9697">I forked and hosted this site</text><text fill="#000000" font-family="sans-serif" font-size="13" lengthAdjust="spacing" textLength="177.144" x="18.6206" y="243.1025">for my own use &#8212; and now</text><text fill="#000000" font-family="sans-serif" font-size="13" lengthAdjust="spacing" textLength="122.0718" x="46.1567" y="258.2353">I share it with you!</text></g><g class="entity" data-entity="GMN14" data-source-line="27" data-uid="ent0015" id="entity_GMN14"><path d="M438.66,24.6 L438.66,48.29 L403.54,52.29 L438.66,56.29 L438.66,79.9984 A0,0 0 0 0 438.66,79.9984 L664.721,79.9984 A0,0 0 0 0 664.721,79.9984 L664.721,34.6 L654.721,24.6 L438.66,24.6 A0,0 0 0 0 438.66,24.6" fill="#FEFFDD" style="stroke:#181818;stroke-width:0.5;"/><path d="M654.721,24.6 L654.721,34.6 L664.721,34.6 L654.721,24.6" fill="#FEFFDD" style="stroke:#181818;stroke-width:0.5;"/><text fill="#000000" font-family="sans-serif" font-size="13" lengthAdjust="spacing" textLength="176.3887" x="454.8639" y="41.6669">If this site is helpful to you,</text><text fill="#000000" font-family="sans-serif" font-size="13" lengthAdjust="spacing" textLength="205.061" x="444.66" y="56.7997">how about buying me a coffee?</text><text fill="#000000" font-family="sans-serif" font-size="13" lengthAdjust="spacing" textLength="157.625" x="468.378" y="71.9325">(link on the top of page)</text></g><!--link Victor to Web--><g class="link" data-entity-1="Victor" data-entity-2="Web" data-source-line="13" data-uid="lnk7" id="link_Victor_Web"><path d="M296.58,286.45 C295.86,301.8 296.89,318.31 301.69,332.98 C310.53,359.98 325.5337,381.248 342.1937,400.158" fill="none" id="Victor-to-Web" style="stroke:#181818;stroke-width:1;"/><polygon fill="#181818" points="346.16,404.66,343.2118,395.2628,342.8547,400.9083,337.2091,400.5512,346.16,404.66" style="stroke:#181818;stroke-width:1;"/><text fill="#000000" font-family="sans-serif" font-size="13" lengthAdjust="spacing" textLength="61.3374" x="302.69" y="329.0469">Publishes</text><text fill="#000000" font-family="sans-serif" font-size="13" lengthAdjust="spacing" textLength="4.1323" x="364.0274" y="329.0469">&#160;</text><text fill="#000000" font-family="sans-serif" font-size="13" lengthAdjust="spacing" textLength="52.5776" x="368.1597" y="329.0469">updates</text></g><!--link User to Web--><g class="link" data-entity-1="User" data-entity-2="Web" data-source-line="14" data-uid="lnk8" id="link_User_Web"><path d="M403.45,86.24 C412.37,98.83 421.12,113.84 425.69,129.09 C451.74,215.89 445.76,244.62 425.69,332.98 C419.89,358.52 409.8488,379.9203 398.6988,399.5903" fill="none" id="User-to-Web" style="stroke:#181818;stroke-width:1;"/><polygon fill="#181818" points="395.74,404.81,403.658,398.953,398.2057,400.4602,396.6984,395.0079,395.74,404.81" style="stroke:#181818;stroke-width:1;"/><text fill="#000000" font-family="sans-serif" font-size="13" lengthAdjust="spacing" textLength="50.2544" x="443.69" y="235.6069">Creates</text><text fill="#000000" font-family="sans-serif" font-size="13" lengthAdjust="spacing" textLength="4.1323" x="493.9444" y="235.6069">&#160;</text><text fill="#000000" font-family="sans-serif" font-size="13" lengthAdjust="spacing" textLength="60.8296" x="498.0767" y="235.6069">diagrams</text></g><!--link Web to Engine--><g class="link" data-entity-1="Web" data-entity-2="Engine" data-source-line="15" data-uid="lnk9" id="link_Web_Engine"><path d="M376.91,467.82 C377.08,490.62 377.2679,515.6401 377.4279,538.4201" fill="none" id="Web-to-Engine" style="stroke:#181818;stroke-width:1;"/><polygon fill="#181818" points="377.47,544.42,381.4067,535.3921,377.4349,539.4201,373.4069,535.4483,377.47,544.42" style="stroke:#181818;stroke-width:1;"/><text fill="#000000" font-family="sans-serif" font-size="13" lengthAdjust="spacing" textLength="42.6943" x="377.69" y="510.6469">Parses</text><text fill="#000000" font-family="sans-serif" font-size="13" lengthAdjust="spacing" textLength="4.1323" x="420.3843" y="510.6469">&#160;</text><text fill="#000000" font-family="sans-serif" font-size="13" lengthAdjust="spacing" textLength="10.1372" x="424.5167" y="510.6469">&amp;</text><text fill="#000000" font-family="sans-serif" font-size="13" lengthAdjust="spacing" textLength="4.1323" x="434.6539" y="510.6469">&#160;</text><text fill="#000000" font-family="sans-serif" font-size="13" lengthAdjust="spacing" textLength="49.9497" x="438.7862" y="510.6469">renders</text></g><!--link User to Victor--><g class="link" data-entity-1="User" data-entity-2="Victor" data-source-line="17" data-uid="lnk10" id="link_User_Victor"><path d="M347.92,75.4 C332.99,89.09 315.99,108.04 307.69,129.09 C301.97,143.61 300.0519,154.2303 299.8919,169.7403" fill="none" id="User-to-Victor" style="stroke:#181818;stroke-width:1;"/><polygon fill="#181818" points="299.83,175.74,303.9226,166.7817,299.8816,170.7403,295.9231,166.6992,299.83,175.74" style="stroke:#181818;stroke-width:1;"/><text fill="#000000" font-family="sans-serif" font-size="13" lengthAdjust="spacing" textLength="31.624" x="308.69" y="142.1569">Buys</text><text fill="#000000" font-family="sans-serif" font-size="13" lengthAdjust="spacing" textLength="4.1323" x="340.314" y="142.1569">&#160;</text><text fill="#000000" font-family="sans-serif" font-size="13" lengthAdjust="spacing" textLength="20.6616" x="344.4463" y="142.1569">me</text><text fill="#000000" font-family="sans-serif" font-size="13" lengthAdjust="spacing" textLength="4.1323" x="365.108" y="142.1569">&#160;</text><text fill="#000000" font-family="sans-serif" font-size="13" lengthAdjust="spacing" textLength="7.9663" x="369.2403" y="142.1569">a</text><text fill="#000000" font-family="sans-serif" font-size="13" lengthAdjust="spacing" textLength="4.1323" x="377.2066" y="142.1569">&#160;</text><text fill="#000000" font-family="sans-serif" font-size="13" lengthAdjust="spacing" textLength="40.2505" x="381.3389" y="142.1569">coffee</text></g><!--SRC=[TLBDRjGm4BxxAJws4cqbYk30fGSGLA2kHCMAqbP8Ut6IIMAjCuuyZjA0a7W8df0dOPpzwLwu9DPyF_FDsB9ntDjeEzWoXNYR9a-m8qdeoCW1hAYsWq_Vw36zzwxXZZYXr0_58rPd7sz8n3PqwtuGNhzvPGo7Yh2uTzdzL72jlcl-QgKlACO9AxV0JmEKeUi3PzV5objETpUVyOMzOsK_K85FCMWphXQm0YtyH_AHcrbofMohfwWvjfejOduPCm-wZxJci-zXYEhlrDrFQpvuNGT9vxDsIyM9Jjwc9XBntkHEQ6VnR4lD1Po8zLrWOtR2YuktEJCkiHeAxwGbmT1NDf6OMV14k8gKowYSRNIbOd8vmzlysS96KS9pH0rCKSoJnQxT9JuCaw3JYzGbrJLHleP4y5GdX7h7CyjJlNL8y4DoWGKsbgrBLAQNW5cY3d535InNQ7KLUaoj4uXI55SKtOGmCWOX_FtzPsPo65KghOq4bp2wr6BIxHYQmRIF4lCgSvOStYph8s_zj-JxUl188OjVQBisZB1561AAONBS74_tpfpfGzaWiBgGYlfitEipF3-q_GS0]--></g></svg>