<svg xmlns="http://www.w3.org/2000/svg" xmlns:xlink="http://www.w3.org/1999/xlink" contentStyleType="text/css" data-diagram-type="SEQUENCE" height="386px" preserveAspectRatio="none" style="width:752px;height:386px;background:#FFFFFF;" version="1.1" viewBox="0 0 752 386" width="752px" zoomAndPan="magnify"><defs/><g><g><title>Participant</title><rect fill="#000000" fill-opacity="0.00000" height="223.9297" width="8" x="45.7856" y="81.2969"/><line style="stroke:#181818;stroke-width:0.5;stroke-dasharray:5,5;" x1="49" x2="49" y1="81.2969" y2="305.2266"/></g><g><title>Actor</title><rect fill="#000000" fill-opacity="0.00000" height="223.9297" width="8" x="123.3218" y="81.2969"/><line style="stroke:#181818;stroke-width:0.5;stroke-dasharray:5,5;" x1="126.7793" x2="126.7793" y1="81.2969" y2="305.2266"/></g><g><title>Boundary</title><rect fill="#000000" fill-opacity="0.00000" height="223.9297" width="8" x="229.2891" y="81.2969"/><line style="stroke:#181818;stroke-width:0.5;stroke-dasharray:5,5;" x1="232.5776" x2="232.5776" y1="81.2969" y2="305.2266"/></g><g><title>Control</title><rect fill="#000000" fill-opacity="0.00000" height="223.9297" width="8" x="318.6636" y="81.2969"/><line style="stroke:#181818;stroke-width:0.5;stroke-dasharray:5,5;" x1="322.2065" x2="322.2065" y1="81.2969" y2="305.2266"/></g><g><title>Entity</title><rect fill="#000000" fill-opacity="0.00000" height="223.9297" width="8" x="400.4272" y="81.2969"/><line style="stroke:#181818;stroke-width:0.5;stroke-dasharray:5,5;" x1="403.9912" x2="403.9912" y1="81.2969" y2="305.2266"/></g><g><title>Database</title><rect fill="#000000" fill-opacity="0.00000" height="223.9297" width="8" x="504.7251" y="81.2969"/><line style="stroke:#181818;stroke-width:0.5;stroke-dasharray:5,5;" x1="508.3247" x2="508.3247" y1="81.2969" y2="305.2266"/></g><g><title>Collections</title><rect fill="#000000" fill-opacity="0.00000" height="223.9297" width="8" x="617.897" y="81.2969"/><line style="stroke:#181818;stroke-width:0.5;stroke-dasharray:5,5;" x1="621.626" x2="621.626" y1="81.2969" y2="305.2266"/></g><g><title>Queue</title><rect fill="#000000" fill-opacity="0.00000" height="223.9297" width="8" x="708.1641" y="81.2969"/><line style="stroke:#181818;stroke-width:0.5;stroke-dasharray:5,5;" x1="711.168" x2="711.168" y1="81.2969" y2="305.2266"/></g><g class="participant participant-head" data-participant="P"><rect fill="#E2E2F0" height="30.2969" rx="2.5" ry="2.5" style="stroke:#181818;stroke-width:0.5;" width="89.5713" x="5" y="50"/><text fill="#000000" font-family="sans-serif" font-size="14" lengthAdjust="spacing" textLength="75.5713" x="12" y="69.9951">Participant</text></g><g class="participant participant-tail" data-participant="P"><rect fill="#E2E2F0" height="30.2969" rx="2.5" ry="2.5" style="stroke:#181818;stroke-width:0.5;" width="89.5713" x="5" y="304.2266"/><text fill="#000000" font-family="sans-serif" font-size="14" lengthAdjust="spacing" textLength="75.5713" x="12" y="324.2217">Participant</text></g><g class="participant participant-head" data-participant="A"><text fill="#000000" font-family="sans-serif" font-size="14" lengthAdjust="spacing" textLength="37.085" x="105.7793" y="77.9951">Actor</text><ellipse cx="127.3218" cy="13.5" fill="#E2E2F0" rx="8" ry="8" style="stroke:#181818;stroke-width:0.5;"/><path d="M127.3218,21.5 L127.3218,48.5 M114.3218,29.5 L140.3218,29.5 M127.3218,48.5 L114.3218,63.5 M127.3218,48.5 L140.3218,63.5" fill="none" style="stroke:#181818;stroke-width:0.5;"/></g><g class="participant participant-tail" data-participant="A"><text fill="#000000" font-family="sans-serif" font-size="14" lengthAdjust="spacing" textLength="37.085" x="105.7793" y="317.2217">Actor</text><ellipse cx="127.3218" cy="329.0234" fill="#E2E2F0" rx="8" ry="8" style="stroke:#181818;stroke-width:0.5;"/><path d="M127.3218,337.0234 L127.3218,364.0234 M114.3218,345.0234 L140.3218,345.0234 M127.3218,364.0234 L114.3218,379.0234 M127.3218,364.0234 L140.3218,379.0234" fill="none" style="stroke:#181818;stroke-width:0.5;"/></g><g class="participant participant-head" data-participant="B"><text fill="#000000" font-family="sans-serif" font-size="14" lengthAdjust="spacing" textLength="67.4229" x="196.5776" y="77.9951">Boundary</text><path d="M212.7891,37 L212.7891,61 M212.7891,49 L229.7891,49" fill="none" style="stroke:#181818;stroke-width:0.5;"/><ellipse cx="241.7891" cy="49" fill="#E2E2F0" rx="12" ry="12" style="stroke:#181818;stroke-width:0.5;"/></g><g class="participant participant-tail" data-participant="B"><text fill="#000000" font-family="sans-serif" font-size="14" lengthAdjust="spacing" textLength="67.4229" x="196.5776" y="317.2217">Boundary</text><path d="M212.7891,324.5234 L212.7891,348.5234 M212.7891,336.5234 L229.7891,336.5234" fill="none" style="stroke:#181818;stroke-width:0.5;"/><ellipse cx="241.7891" cy="336.5234" fill="#E2E2F0" rx="12" ry="12" style="stroke:#181818;stroke-width:0.5;"/></g><g class="participant participant-head" data-participant="C"><text fill="#000000" font-family="sans-serif" font-size="14" lengthAdjust="spacing" textLength="50.9141" x="294.2065" y="77.9951">Control</text><ellipse cx="322.6636" cy="49" fill="#E2E2F0" rx="12" ry="12" style="stroke:#181818;stroke-width:0.5;"/><polygon fill="#181818" points="318.6636,37,324.6636,32,322.6636,37,324.6636,42,318.6636,37" style="stroke:#181818;stroke-width:1;"/></g><g class="participant participant-tail" data-participant="C"><text fill="#000000" font-family="sans-serif" font-size="14" lengthAdjust="spacing" textLength="50.9141" x="294.2065" y="317.2217">Control</text><ellipse cx="322.6636" cy="336.5234" fill="#E2E2F0" rx="12" ry="12" style="stroke:#181818;stroke-width:0.5;"/><polygon fill="#181818" points="318.6636,324.5234,324.6636,319.5234,322.6636,324.5234,324.6636,329.5234,318.6636,324.5234" style="stroke:#181818;stroke-width:1;"/></g><g class="participant participant-head" data-participant="E"><text fill="#000000" font-family="sans-serif" font-size="14" lengthAdjust="spacing" textLength="40.8721" x="380.9912" y="77.9951">Entity</text><ellipse cx="404.4272" cy="49" fill="#E2E2F0" rx="12" ry="12" style="stroke:#181818;stroke-width:0.5;"/><line style="stroke:#181818;stroke-width:0.5;" x1="392.4272" x2="416.4272" y1="63" y2="63"/></g><g class="participant participant-tail" data-participant="E"><text fill="#000000" font-family="sans-serif" font-size="14" lengthAdjust="spacing" textLength="40.8721" x="380.9912" y="317.2217">Entity</text><ellipse cx="404.4272" cy="336.5234" fill="#E2E2F0" rx="12" ry="12" style="stroke:#181818;stroke-width:0.5;"/><line style="stroke:#181818;stroke-width:0.5;" x1="392.4272" x2="416.4272" y1="350.5234" y2="350.5234"/></g><g class="participant participant-head" data-participant="D"><text fill="#000000" font-family="sans-serif" font-size="14" lengthAdjust="spacing" textLength="66.8008" x="472.3247" y="77.9951">Database</text><path d="M490.7251,29 C490.7251,19 508.7251,19 508.7251,19 C508.7251,19 526.7251,19 526.7251,29 L526.7251,55 C526.7251,65 508.7251,65 508.7251,65 C508.7251,65 490.7251,65 490.7251,55 L490.7251,29" fill="#E2E2F0" style="stroke:#181818;stroke-width:0.5;"/><path d="M490.7251,29 C490.7251,39 508.7251,39 508.7251,39 C508.7251,39 526.7251,39 526.7251,29" fill="none" style="stroke:#181818;stroke-width:0.5;"/></g><g class="participant participant-tail" data-participant="D"><text fill="#000000" font-family="sans-serif" font-size="14" lengthAdjust="spacing" textLength="66.8008" x="472.3247" y="317.2217">Database</text><path d="M490.7251,330.5234 C490.7251,320.5234 508.7251,320.5234 508.7251,320.5234 C508.7251,320.5234 526.7251,320.5234 526.7251,330.5234 L526.7251,356.5234 C526.7251,366.5234 508.7251,366.5234 508.7251,366.5234 C508.7251,366.5234 490.7251,366.5234 490.7251,356.5234 L490.7251,330.5234" fill="#E2E2F0" style="stroke:#181818;stroke-width:0.5;"/><path d="M490.7251,330.5234 C490.7251,340.5234 508.7251,340.5234 508.7251,340.5234 C508.7251,340.5234 526.7251,340.5234 526.7251,330.5234" fill="none" style="stroke:#181818;stroke-width:0.5;"/></g><g class="participant participant-head" data-participant="CO"><rect fill="#E2E2F0" height="30.2969" style="stroke:#181818;stroke-width:0.5;" width="90.542" x="578.626" y="46"/><rect fill="#E2E2F0" height="30.2969" style="stroke:#181818;stroke-width:0.5;" width="90.542" x="574.626" y="50"/><text fill="#000000" font-family="sans-serif" font-size="14" lengthAdjust="spacing" textLength="76.542" x="581.626" y="69.9951">Collections</text></g><g class="participant participant-tail" data-participant="CO"><rect fill="#E2E2F0" height="30.2969" style="stroke:#181818;stroke-width:0.5;" width="90.542" x="578.626" y="304.2266"/><rect fill="#E2E2F0" height="30.2969" style="stroke:#181818;stroke-width:0.5;" width="90.542" x="574.626" y="308.2266"/><text fill="#000000" font-family="sans-serif" font-size="14" lengthAdjust="spacing" textLength="76.542" x="581.626" y="328.2217">Collections</text></g><g class="participant participant-head" data-participant="Q"><path d="M684.168,55 L740.1602,55 C745.1602,55 745.1602,68.1484 745.1602,68.1484 C745.1602,68.1484 745.1602,81.2969 740.1602,81.2969 L684.168,81.2969 C679.168,81.2969 679.168,68.1484 679.168,68.1484 C679.168,68.1484 679.168,55 684.168,55" fill="#E2E2F0" style="stroke:#181818;stroke-width:0.5;"/><path d="M740.1602,55 C735.1602,55 735.1602,68.1484 735.1602,68.1484 C735.1602,81.2969 740.1602,81.2969 740.1602,81.2969" fill="none" style="stroke:#181818;stroke-width:0.5;"/><text fill="#000000" font-family="sans-serif" font-size="14" lengthAdjust="spacing" textLength="45.9922" x="684.168" y="72.9951">Queue</text></g><g class="participant participant-tail" data-participant="Q"><path d="M684.168,304.2266 L740.1602,304.2266 C745.1602,304.2266 745.1602,317.375 745.1602,317.375 C745.1602,317.375 745.1602,330.5234 740.1602,330.5234 L684.168,330.5234 C679.168,330.5234 679.168,317.375 679.168,317.375 C679.168,317.375 679.168,304.2266 684.168,304.2266" fill="#E2E2F0" style="stroke:#181818;stroke-width:0.5;"/><path d="M740.1602,304.2266 C735.1602,304.2266 735.1602,317.375 735.1602,317.375 C735.1602,330.5234 740.1602,330.5234 740.1602,330.5234" fill="none" style="stroke:#181818;stroke-width:0.5;"/><text fill="#000000" font-family="sans-serif" font-size="14" lengthAdjust="spacing" textLength="45.9922" x="684.168" y="322.2217">Queue</text></g><g class="message" data-participant-1="P" data-participant-2="A"><polygon fill="#181818" points="115.3218,108.4297,125.3218,112.4297,115.3218,116.4297,119.3218,112.4297" style="stroke:#181818;stroke-width:1;"/><line style="stroke:#181818;stroke-width:1;" x1="49.7856" x2="121.3218" y1="112.4297" y2="112.4297"/><text fill="#000000" font-family="sans-serif" font-size="13" lengthAdjust="spacing" textLength="53.5361" x="56.7856" y="107.3638">To actor</text></g><g class="message" data-participant-1="A" data-participant-2="B"><polygon fill="#181818" points="221.2891,137.5625,231.2891,141.5625,221.2891,145.5625,225.2891,141.5625" style="stroke:#181818;stroke-width:1;"/><line style="stroke:#181818;stroke-width:1;" x1="127.3218" x2="227.2891" y1="141.5625" y2="141.5625"/><text fill="#000000" font-family="sans-serif" font-size="13" lengthAdjust="spacing" textLength="81.9673" x="134.3218" y="136.4966">To boundary</text></g><g class="message" data-participant-1="B" data-participant-2="C"><polygon fill="#181818" points="310.6636,166.6953,320.6636,170.6953,310.6636,174.6953,314.6636,170.6953" style="stroke:#181818;stroke-width:1;"/><line style="stroke:#181818;stroke-width:1;" x1="233.2891" x2="316.6636" y1="170.6953" y2="170.6953"/><text fill="#000000" font-family="sans-serif" font-size="13" lengthAdjust="spacing" textLength="65.3745" x="240.2891" y="165.6294">To control</text></g><g class="message" data-participant-1="C" data-participant-2="E"><polygon fill="#181818" points="392.4272,195.8281,402.4272,199.8281,392.4272,203.8281,396.4272,199.8281" style="stroke:#181818;stroke-width:1;"/><line style="stroke:#181818;stroke-width:1;" x1="322.6636" x2="398.4272" y1="199.8281" y2="199.8281"/><text fill="#000000" font-family="sans-serif" font-size="13" lengthAdjust="spacing" textLength="57.7637" x="329.6636" y="194.7622">To entity</text></g><g class="message" data-participant-1="E" data-participant-2="D"><polygon fill="#181818" points="496.7251,224.9609,506.7251,228.9609,496.7251,232.9609,500.7251,228.9609" style="stroke:#181818;stroke-width:1;"/><line style="stroke:#181818;stroke-width:1;" x1="404.4272" x2="502.7251" y1="228.9609" y2="228.9609"/><text fill="#000000" font-family="sans-serif" font-size="13" lengthAdjust="spacing" textLength="80.2979" x="411.4272" y="223.895">To database</text></g><g class="message" data-participant-1="D" data-participant-2="CO"><polygon fill="#181818" points="609.897,254.0938,619.897,258.0938,609.897,262.0938,613.897,258.0938" style="stroke:#181818;stroke-width:1;"/><line style="stroke:#181818;stroke-width:1;" x1="508.7251" x2="615.897" y1="258.0938" y2="258.0938"/><text fill="#000000" font-family="sans-serif" font-size="13" lengthAdjust="spacing" textLength="89.1719" x="515.7251" y="253.0278">To collections</text></g><g class="message" data-participant-1="CO" data-participant-2="Q"><polygon fill="#181818" points="700.1641,283.2266,710.1641,287.2266,700.1641,291.2266,704.1641,287.2266" style="stroke:#181818;stroke-width:1;"/><line style="stroke:#181818;stroke-width:1;" x1="621.897" x2="706.1641" y1="287.2266" y2="287.2266"/><text fill="#000000" font-family="sans-serif" font-size="13" lengthAdjust="spacing" textLength="60.7534" x="628.897" y="282.1606">To queue</text></g><!--SRC=[JOyn3iCW34Ltdu8Bz08TAX5WJYBr0eGm84MG4ZBqzhLDKfdfwNriVU- -jXJIxdDJas1_g0byQAMg_hHW33KivSohhryIWs0C1mWbjres_cq4OsWWvfRQjwzoWZ5qiFhc5tz44bOmXXRNRbiCBPMCUmJJsX4-PppZLN4MZEaCCAd7I-cdUXVLxm9DPc1p7mC3ESFkkW4CASUgDmT7nhAvwuBbmV6Q_5S3Cr8mi-U2Fm00]--></g></svg>