<svg xmlns="http://www.w3.org/2000/svg" xmlns:xlink="http://www.w3.org/1999/xlink" contentStyleType="text/css" data-diagram-type="SEQUENCE" height="386px" preserveAspectRatio="none" style="width:767px;height:386px;background:#FFFFFF;" version="1.1" viewBox="0 0 767 386" width="767px" zoomAndPan="magnify"><defs/><g><g><title>Participant</title><rect fill="#000000" fill-opacity="0.00000" height="223.9297" width="8" x="45.7856" y="81.2969"/><line style="stroke:#181818;stroke-width:0.5;stroke-dasharray:5,5;" x1="49" x2="49" y1="81.2969" y2="305.2266"/></g><g><title>ActorNEW</title><rect fill="#000000" fill-opacity="0.00000" height="223.9297" width="8" x="138.6943" y="81.2969"/><line style="stroke:#181818;stroke-width:0.5;stroke-dasharray:5,5;" x1="142.5713" x2="142.5713" y1="81.2969" y2="305.2266"/></g><g><title>Boundary</title><rect fill="#000000" fill-opacity="0.00000" height="223.9297" width="8" x="244.6616" y="81.2969"/><line style="stroke:#181818;stroke-width:0.5;stroke-dasharray:5,5;" x1="247.9502" x2="247.9502" y1="81.2969" y2="305.2266"/></g><g><title>Control</title><rect fill="#000000" fill-opacity="0.00000" height="223.9297" width="8" x="334.0361" y="81.2969"/><line style="stroke:#181818;stroke-width:0.5;stroke-dasharray:5,5;" x1="337.5791" x2="337.5791" y1="81.2969" y2="305.2266"/></g><g><title>Entity</title><rect fill="#000000" fill-opacity="0.00000" height="223.9297" width="8" x="415.7998" y="81.2969"/><line style="stroke:#181818;stroke-width:0.5;stroke-dasharray:5,5;" x1="419.3638" x2="419.3638" y1="81.2969" y2="305.2266"/></g><g><title>Database</title><rect fill="#000000" fill-opacity="0.00000" height="223.9297" width="8" x="520.0977" y="81.2969"/><line style="stroke:#181818;stroke-width:0.5;stroke-dasharray:5,5;" x1="523.6973" x2="523.6973" y1="81.2969" y2="305.2266"/></g><g><title>Collections</title><rect fill="#000000" fill-opacity="0.00000" height="223.9297" width="8" x="633.2695" y="81.2969"/><line style="stroke:#181818;stroke-width:0.5;stroke-dasharray:5,5;" x1="636.9985" x2="636.9985" y1="81.2969" y2="305.2266"/></g><g><title>Queue</title><rect fill="#000000" fill-opacity="0.00000" height="223.9297" width="8" x="723.5366" y="81.2969"/><line style="stroke:#181818;stroke-width:0.5;stroke-dasharray:5,5;" x1="726.5405" x2="726.5405" y1="81.2969" y2="305.2266"/></g><g class="participant participant-head" data-participant="P"><rect fill="#E2E2F0" height="30.2969" rx="2.5" ry="2.5" style="stroke:#181818;stroke-width:0.5;" width="89.5713" x="5" y="50"/><text fill="#000000" font-family="sans-serif" font-size="14" lengthAdjust="spacing" textLength="75.5713" x="12" y="69.9951">Participant</text></g><g class="participant participant-tail" data-participant="P"><rect fill="#E2E2F0" height="30.2969" rx="2.5" ry="2.5" style="stroke:#181818;stroke-width:0.5;" width="89.5713" x="5" y="304.2266"/><text fill="#000000" font-family="sans-serif" font-size="14" lengthAdjust="spacing" textLength="75.5713" x="12" y="324.2217">Participant</text></g><g class="participant participant-head" data-participant="A"><text fill="#000000" font-family="sans-serif" font-size="14" lengthAdjust="spacing" textLength="70.2461" x="104.5713" y="77.9951">ActorNEW</text><ellipse cx="142.6943" cy="13.5" fill="#E2E2F0" rx="8" ry="8" style="stroke:#181818;stroke-width:0.5;"/><path d="M142.6943,21.5 L142.6943,48.5 M129.6943,29.5 L155.6943,29.5 M142.6943,48.5 L129.6943,63.5 M142.6943,48.5 L155.6943,63.5" fill="none" style="stroke:#181818;stroke-width:0.5;"/></g><g class="participant participant-tail" data-participant="A"><text fill="#000000" font-family="sans-serif" font-size="14" lengthAdjust="spacing" textLength="70.2461" x="104.5713" y="317.2217">ActorNEW</text><ellipse cx="142.6943" cy="329.0234" fill="#E2E2F0" rx="8" ry="8" style="stroke:#181818;stroke-width:0.5;"/><path d="M142.6943,337.0234 L142.6943,364.0234 M129.6943,345.0234 L155.6943,345.0234 M142.6943,364.0234 L129.6943,379.0234 M142.6943,364.0234 L155.6943,379.0234" fill="none" style="stroke:#181818;stroke-width:0.5;"/></g><g class="participant participant-head" data-participant="B"><text fill="#000000" font-family="sans-serif" font-size="14" lengthAdjust="spacing" textLength="67.4229" x="211.9502" y="77.9951">Boundary</text><path d="M228.1616,37 L228.1616,61 M228.1616,49 L245.1616,49" fill="none" style="stroke:#181818;stroke-width:0.5;"/><ellipse cx="257.1616" cy="49" fill="#E2E2F0" rx="12" ry="12" style="stroke:#181818;stroke-width:0.5;"/></g><g class="participant participant-tail" data-participant="B"><text fill="#000000" font-family="sans-serif" font-size="14" lengthAdjust="spacing" textLength="67.4229" x="211.9502" y="317.2217">Boundary</text><path d="M228.1616,324.5234 L228.1616,348.5234 M228.1616,336.5234 L245.1616,336.5234" fill="none" style="stroke:#181818;stroke-width:0.5;"/><ellipse cx="257.1616" cy="336.5234" fill="#E2E2F0" rx="12" ry="12" style="stroke:#181818;stroke-width:0.5;"/></g><g class="participant participant-head" data-participant="C"><text fill="#000000" font-family="sans-serif" font-size="14" lengthAdjust="spacing" textLength="50.9141" x="309.5791" y="77.9951">Control</text><ellipse cx="338.0361" cy="49" fill="#E2E2F0" rx="12" ry="12" style="stroke:#181818;stroke-width:0.5;"/><polygon fill="#181818" points="334.0361,37,340.0361,32,338.0361,37,340.0361,42,334.0361,37" style="stroke:#181818;stroke-width:1;"/></g><g class="participant participant-tail" data-participant="C"><text fill="#000000" font-family="sans-serif" font-size="14" lengthAdjust="spacing" textLength="50.9141" x="309.5791" y="317.2217">Control</text><ellipse cx="338.0361" cy="336.5234" fill="#E2E2F0" rx="12" ry="12" style="stroke:#181818;stroke-width:0.5;"/><polygon fill="#181818" points="334.0361,324.5234,340.0361,319.5234,338.0361,324.5234,340.0361,329.5234,334.0361,324.5234" style="stroke:#181818;stroke-width:1;"/></g><g class="participant participant-head" data-participant="E"><text fill="#000000" font-family="sans-serif" font-size="14" lengthAdjust="spacing" textLength="40.8721" x="396.3638" y="77.9951">Entity</text><ellipse cx="419.7998" cy="49" fill="#E2E2F0" rx="12" ry="12" style="stroke:#181818;stroke-width:0.5;"/><line style="stroke:#181818;stroke-width:0.5;" x1="407.7998" x2="431.7998" y1="63" y2="63"/></g><g class="participant participant-tail" data-participant="E"><text fill="#000000" font-family="sans-serif" font-size="14" lengthAdjust="spacing" textLength="40.8721" x="396.3638" y="317.2217">Entity</text><ellipse cx="419.7998" cy="336.5234" fill="#E2E2F0" rx="12" ry="12" style="stroke:#181818;stroke-width:0.5;"/><line style="stroke:#181818;stroke-width:0.5;" x1="407.7998" x2="431.7998" y1="350.5234" y2="350.5234"/></g><g class="participant participant-head" data-participant="D"><text fill="#000000" font-family="sans-serif" font-size="14" lengthAdjust="spacing" textLength="66.8008" x="487.6973" y="77.9951">Database</text><path d="M506.0977,29 C506.0977,19 524.0977,19 524.0977,19 C524.0977,19 542.0977,19 542.0977,29 L542.0977,55 C542.0977,65 524.0977,65 524.0977,65 C524.0977,65 506.0977,65 506.0977,55 L506.0977,29" fill="#E2E2F0" style="stroke:#181818;stroke-width:0.5;"/><path d="M506.0977,29 C506.0977,39 524.0977,39 524.0977,39 C524.0977,39 542.0977,39 542.0977,29" fill="none" style="stroke:#181818;stroke-width:0.5;"/></g><g class="participant participant-tail" data-participant="D"><text fill="#000000" font-family="sans-serif" font-size="14" lengthAdjust="spacing" textLength="66.8008" x="487.6973" y="317.2217">Database</text><path d="M506.0977,330.5234 C506.0977,320.5234 524.0977,320.5234 524.0977,320.5234 C524.0977,320.5234 542.0977,320.5234 542.0977,330.5234 L542.0977,356.5234 C542.0977,366.5234 524.0977,366.5234 524.0977,366.5234 C524.0977,366.5234 506.0977,366.5234 506.0977,356.5234 L506.0977,330.5234" fill="#E2E2F0" style="stroke:#181818;stroke-width:0.5;"/><path d="M506.0977,330.5234 C506.0977,340.5234 524.0977,340.5234 524.0977,340.5234 C524.0977,340.5234 542.0977,340.5234 542.0977,330.5234" fill="none" style="stroke:#181818;stroke-width:0.5;"/></g><g class="participant participant-head" data-participant="CO"><rect fill="#E2E2F0" height="30.2969" style="stroke:#181818;stroke-width:0.5;" width="90.542" x="593.9985" y="46"/><rect fill="#E2E2F0" height="30.2969" style="stroke:#181818;stroke-width:0.5;" width="90.542" x="589.9985" y="50"/><text fill="#000000" font-family="sans-serif" font-size="14" lengthAdjust="spacing" textLength="76.542" x="596.9985" y="69.9951">Collections</text></g><g class="participant participant-tail" data-participant="CO"><rect fill="#E2E2F0" height="30.2969" style="stroke:#181818;stroke-width:0.5;" width="90.542" x="593.9985" y="304.2266"/><rect fill="#E2E2F0" height="30.2969" style="stroke:#181818;stroke-width:0.5;" width="90.542" x="589.9985" y="308.2266"/><text fill="#000000" font-family="sans-serif" font-size="14" lengthAdjust="spacing" textLength="76.542" x="596.9985" y="328.2217">Collections</text></g><g class="participant participant-head" data-participant="Q"><path d="M699.5405,55 L755.5327,55 C760.5327,55 760.5327,68.1484 760.5327,68.1484 C760.5327,68.1484 760.5327,81.2969 755.5327,81.2969 L699.5405,81.2969 C694.5405,81.2969 694.5405,68.1484 694.5405,68.1484 C694.5405,68.1484 694.5405,55 699.5405,55" fill="#E2E2F0" style="stroke:#181818;stroke-width:0.5;"/><path d="M755.5327,55 C750.5327,55 750.5327,68.1484 750.5327,68.1484 C750.5327,81.2969 755.5327,81.2969 755.5327,81.2969" fill="none" style="stroke:#181818;stroke-width:0.5;"/><text fill="#000000" font-family="sans-serif" font-size="14" lengthAdjust="spacing" textLength="45.9922" x="699.5405" y="72.9951">Queue</text></g><g class="participant participant-tail" data-participant="Q"><path d="M699.5405,304.2266 L755.5327,304.2266 C760.5327,304.2266 760.5327,317.375 760.5327,317.375 C760.5327,317.375 760.5327,330.5234 755.5327,330.5234 L699.5405,330.5234 C694.5405,330.5234 694.5405,317.375 694.5405,317.375 C694.5405,317.375 694.5405,304.2266 699.5405,304.2266" fill="#E2E2F0" style="stroke:#181818;stroke-width:0.5;"/><path d="M755.5327,304.2266 C750.5327,304.2266 750.5327,317.375 750.5327,317.375 C750.5327,330.5234 755.5327,330.5234 755.5327,330.5234" fill="none" style="stroke:#181818;stroke-width:0.5;"/><text fill="#000000" font-family="sans-serif" font-size="14" lengthAdjust="spacing" textLength="45.9922" x="699.5405" y="322.2217">Queue</text></g><g class="message" data-participant-1="P" data-participant-2="A"><polygon fill="#181818" points="130.6943,108.4297,140.6943,112.4297,130.6943,116.4297,134.6943,112.4297" style="stroke:#181818;stroke-width:1;"/><line style="stroke:#181818;stroke-width:1;" x1="49.7856" x2="136.6943" y1="112.4297" y2="112.4297"/><text fill="#000000" font-family="sans-serif" font-size="13" lengthAdjust="spacing" textLength="53.5361" x="56.7856" y="107.3638">To actor</text></g><g class="message" data-participant-1="A" data-participant-2="B"><polygon fill="#181818" points="236.6616,137.5625,246.6616,141.5625,236.6616,145.5625,240.6616,141.5625" style="stroke:#181818;stroke-width:1;"/><line style="stroke:#181818;stroke-width:1;" x1="142.6943" x2="242.6616" y1="141.5625" y2="141.5625"/><text fill="#000000" font-family="sans-serif" font-size="13" lengthAdjust="spacing" textLength="81.9673" x="149.6943" y="136.4966">To boundary</text></g><g class="message" data-participant-1="B" data-participant-2="C"><polygon fill="#181818" points="326.0361,166.6953,336.0361,170.6953,326.0361,174.6953,330.0361,170.6953" style="stroke:#181818;stroke-width:1;"/><line style="stroke:#181818;stroke-width:1;" x1="248.6616" x2="332.0361" y1="170.6953" y2="170.6953"/><text fill="#000000" font-family="sans-serif" font-size="13" lengthAdjust="spacing" textLength="65.3745" x="255.6616" y="165.6294">To control</text></g><g class="message" data-participant-1="C" data-participant-2="E"><polygon fill="#181818" points="407.7998,195.8281,417.7998,199.8281,407.7998,203.8281,411.7998,199.8281" style="stroke:#181818;stroke-width:1;"/><line style="stroke:#181818;stroke-width:1;" x1="338.0361" x2="413.7998" y1="199.8281" y2="199.8281"/><text fill="#000000" font-family="sans-serif" font-size="13" lengthAdjust="spacing" textLength="57.7637" x="345.0361" y="194.7622">To entity</text></g><g class="message" data-participant-1="E" data-participant-2="D"><polygon fill="#181818" points="512.0977,224.9609,522.0977,228.9609,512.0977,232.9609,516.0977,228.9609" style="stroke:#181818;stroke-width:1;"/><line style="stroke:#181818;stroke-width:1;" x1="419.7998" x2="518.0977" y1="228.9609" y2="228.9609"/><text fill="#000000" font-family="sans-serif" font-size="13" lengthAdjust="spacing" textLength="80.2979" x="426.7998" y="223.895">To database</text></g><g class="message" data-participant-1="D" data-participant-2="CO"><polygon fill="#181818" points="625.2695,254.0938,635.2695,258.0938,625.2695,262.0938,629.2695,258.0938" style="stroke:#181818;stroke-width:1;"/><line style="stroke:#181818;stroke-width:1;" x1="524.0977" x2="631.2695" y1="258.0938" y2="258.0938"/><text fill="#000000" font-family="sans-serif" font-size="13" lengthAdjust="spacing" textLength="89.1719" x="531.0977" y="253.0278">To collections</text></g><g class="message" data-participant-1="CO" data-participant-2="Q"><polygon fill="#181818" points="715.5366,283.2266,725.5366,287.2266,715.5366,291.2266,719.5366,287.2266" style="stroke:#181818;stroke-width:1;"/><line style="stroke:#181818;stroke-width:1;" x1="637.2695" x2="721.5366" y1="287.2266" y2="287.2266"/><text fill="#000000" font-family="sans-serif" font-size="13" lengthAdjust="spacing" textLength="60.7534" x="644.2695" y="282.1606">To queue</text></g><!--SRC=[JOyn3iCW34Ltdu8Bz08TAX5WRHAfKcU7C215a58ovFR5XbGmFTu7wtl7bBtrEuOifexnAoP0csCIzKZYftctQyabBF48AwQJnD1n2GUmCUGKDtwjEYwX0XUopsSTPJekeO4LCoxuTIHqnoNKPUosEPjz36LEnpHsXC_X3jSgpXsNT0QOnEqXv5syegYhWIGpiBcMWO6SOjTs04NAiAhDmP3HRAwweFdZs7x-gu4QAPZPSy4V]--></g></svg>